<svg id="Layer_2" data-name="Layer 2" xmlns="http://www.w3.org/2000/svg" viewBox="0 0 468.19 289.16"><defs><style>.cls-1{fill:none;stroke:#231f20;stroke-miterlimit:10;}</style></defs><path class="cls-1" d="M155.62,102.56l31.67,10,28.18,3.55h20.77L258.77,111l25.92-5.26,35.65.2,27.31,2,45.54,8.17,38.23,12.46,26.54,16,8.8,10.69.76,4-5.23-2.43-16.6-10.37-25.44-9.07L392.18,132l-.34,0-63.57-2-11.93,2.47-22.89,7L205.8,172l-28.56,13.42H163L159.5,187l-.15,1.59,9.44,7.45,4.7,8.56,2.31,10.68,5.42,9.71,5.4,2.69,1.87,3.61.15,7.64-8.52,14.35L173.78,264l-.15,10.1-9.54,11-3.15,2.1H146.66l-3.69-.07c-.36,0-8.74-.27-8.42-.1l-9.8.47-.77-2,3.38-6.36-7.23-.71-1.31-3,5.62-2.45,19.77.14,2.59-3-3.75-4.47-5.19.29-5.63,3.17-1.29.58,1.58-4.47,5.63-4L149,261l3.75,6.35,12-14.13,5.05-10.54.72-7.5-25.39-18-17.31-17.31.43-17.74-2.57-1-6.8-3.16-16.74-11-5.62-5.34-6.35,6.64-1.56,4.52-.17,1.68-1.17,6,0,2.21v3.47l5.48-3.9,3.59-4.59v.55l-.14,4.19.14,1.15,1.3-.14,1.23-1.6a5.19,5.19,0,0,1,.49-.55l1.44-1.37-.61,2.32-2.26,6,.15.72,1.15-.29,2.09-3.49,1.08-2.14-.09,6-1.64,3.79-3.31,4.51-2.93,3.66-3.9,2.68-4.57,1-4.91-3-3.46-4.76-1.3-12.12v-5.91l-.15-2.71,1.6-11.28,2-16.57L68.91,135.94l-5.2-8.08-1.3-10.39L61,102.56,59.82,79.39,62.7,55l-6.2-4.76L34.72,54,12.36,57.9,4,55.73l-.86-4.61,12-4.19L43.52,34.81,10.34,46.21.5,47.65V33.37L21.88,17.22,40.34,5.68,51.45,3.8l8.08-2.16h13l11,7.21,6,7.93,3.61,7.36,1.73,7.07-.14,21.64L94,60.92,93,65.4l6.2,9.37L106.27,81l16.3,7.5,11.83,7.64L146.8,100Z"/></svg>